<?xml version="1.0" encoding="UTF-8" standalone="no"?>
<svg
   xmlns:dc="http://purl.org/dc/elements/1.1/"
   xmlns:cc="http://creativecommons.org/ns#"
   xmlns:rdf="http://www.w3.org/1999/02/22-rdf-syntax-ns#"
   xmlns:svg="http://www.w3.org/2000/svg"
   xmlns="http://www.w3.org/2000/svg"
   xmlns:sodipodi="http://sodipodi.sourceforge.net/DTD/sodipodi-0.dtd"
   xmlns:inkscape="http://www.inkscape.org/namespaces/inkscape"
   viewBox="0 0 235.51 278.94"
   version="1.1"
   id="svg3893"
   sodipodi:docname="current-logo-white.svg"
   inkscape:export-filename="C:\Users\victo\Documents\Sielo\sielo-media\logos\current-logo-white.png"
   inkscape:export-xdpi="600"
   inkscape:export-ydpi="600"
   inkscape:version="0.92.3 (2405546, 2018-03-11)">
  <metadata
     id="metadata3897">
    <rdf:RDF>
      <cc:Work
         rdf:about="">
        <dc:format>image/svg+xml</dc:format>
        <dc:type
           rdf:resource="http://purl.org/dc/dcmitype/StillImage" />
        <dc:title>current-logo-white</dc:title>
      </cc:Work>
    </rdf:RDF>
  </metadata>
  <sodipodi:namedview
     pagecolor="#ffffff"
     bordercolor="#666666"
     borderopacity="1"
     objecttolerance="10"
     gridtolerance="10"
     guidetolerance="10"
     inkscape:pageopacity="0"
     inkscape:pageshadow="2"
     inkscape:window-width="3715"
     inkscape:window-height="2115"
     id="namedview3895"
     showgrid="false"
     inkscape:pagecheckerboard="true"
     inkscape:zoom="1.8762473"
     inkscape:cx="-291.40614"
     inkscape:cy="-16.157839"
     inkscape:window-x="-13"
     inkscape:window-y="-13"
     inkscape:window-maximized="1"
     inkscape:current-layer="g438" />
  <defs
     id="defs3839">
    <style
       id="style3837">.cls-1{font-size:62.58px;}.cls-1,.cls-3,.cls-4{fill:#fff;stroke:#fff;stroke-miterlimit:10;}.cls-1,.cls-3{font-family:Titillium-Bold, Titillium;font-weight:700;}.cls-2{letter-spacing:-0.01em;}.cls-3{font-size:32.78px;}</style>
  </defs>
  <title
     id="title3841">current-logo-white</title>
  <g
     id="Layer_2"
     data-name="Layer 2">
    <g
       id="Layer_1-2"
       data-name="Layer 1">
      <text
         class="cls-1"
         transform="scale(0.83675499,1.195093)"
         id="text3847"
         style="font-weight:700;font-size:52.54136658px;font-family:Titillium-Bold, Titillium;fill:#ffffff;stroke:#ffffff;stroke-width:0.83958715;stroke-miterlimit:10"
         x="48.24659"
         y="197.08676">SIELO</text>
      <text
         class="cls-3"
         transform="scale(0.8611662,1.161216)"
         id="text3849"
         x="51.36816"
         y="231.05469"
         style="font-weight:700;font-size:28.38160515px;font-family:Titillium-Bold, Titillium;fill:#ffffff;stroke:#ffffff;stroke-width:0.86582077;stroke-miterlimit:10">BROWSER</text>
      <g
         id="g236">
        <g
           id="g238">
          <g
             id="g244">
            <g
               id="g246">
              <path
                 id="path256"
                 class="cls-4"
                 d="M23.73,161c2.67-7.33,8.4-16.53,18.13-28.13h0a97.15,97.15,0,0,1-9.6-20.27h0C23.6,122.5-6.67,158.5,23.73,161" />
            </g>
          </g>
        </g>
      </g>
      <g
         id="g258">
        <g
           id="g260">
          <g
             id="g266">
            <g
               id="g268">
              <path
                 id="path278"
                 class="cls-4"
                 d="M73.87,12.9C41.47,37.83,43.33,60,91.6,82.5h0C28.67,51,78.93,17.17,133.87,3h0A76.56,76.56,0,0,0,115.73.9h0a79.27,79.27,0,0,0-41.87,12" />
            </g>
          </g>
        </g>
      </g>
      <g
         id="g280">
        <g
           id="g282">
          <g
             id="g288">
            <g
               id="g290">
              <path
                 id="path300"
                 class="cls-4"
                 d="M38.53,47.17A88.11,88.11,0,0,0,71.47,158.9h0C98.4,147.57,121.6,129.17,117.2,111h0c14.67,5.07,42.8,17.47,29.73,31.2h0c24.4-18.67-32.93-44.53-55.6-55.07h0C37.6,62.1,35.6,37.43,71.6,9.83h0A87.67,87.67,0,0,0,38.53,47.17" />
            </g>
          </g>
        </g>
      </g>
      <g
         id="g372">
        <g
           id="g374">
          <g
             id="g380">
            <g
               id="g382">
              <path
                 id="path392"
                 class="cls-4"
                 d="M117.2,111c-9.73,47.6-169.47,92.13-85.47-2.53h0C-75.73,215,129.6,161.7,117.2,111" />
            </g>
          </g>
        </g>
      </g>
      <g
         id="g394">
        <g
           id="g396">
          <g
             id="g402">
            <g
               id="g404">
              <path
                 id="path414"
                 class="cls-4"
                 d="M206.13,11.7c-1.87,5.87-6,13.33-12.8,22.4h0a96.33,96.33,0,0,1,10.8,22h0c10.53-12.67,35.47-44.4,3.6-44.4h-1.6" />
            </g>
          </g>
        </g>
      </g>
      <g
         id="g416">
        <g
           id="g418">
          <g
             id="g424">
            <g
               id="g426">
              <path
                 id="path436"
                 class="cls-4"
                 d="M102.53,165.7a79.22,79.22,0,0,0,60-9.87h0c32.4-24.93,30.53-47.2-17.73-69.6h0c62.93,30.93,12.67,65.33-42.27,79.47" />
            </g>
          </g>
        </g>
      </g>
      <g
         id="g438">
        <g
           id="g440">
          <g
             id="g446">
            <g
               id="g448">
              <path
                 id="path458"
                 class="cls-4"
                 d="M99.2,86.23c-5.47-11.07,2.13-24.53,19.47-34.53h0c-.8,10.27,6.53,20.67,26.27,29.87h0c53.6,25.07,55.73,49.73,19.73,77.33h0a87.45,87.45,0,0,0,33.2-37.47h0A88,88,0,0,0,167.33,11.3h0C125.07,28,81.6,60.1,99.2,86.23" />
            </g>
          </g>
        </g>
      </g>
      <g
         id="g530">
        <g
           id="g532">
          <g
             id="g538">
            <g
               id="g540">
              <path
                 id="path550"
                 class="cls-4"
                 d="M99.2,86.23C70.13,38.1,295.6-46.7,204.67,60.23h0C247.33,16.63,239.6.5,214.53.5h0C170.8.5,74.4,49.3,99.2,86.23" />
            </g>
          </g>
        </g>
      </g>
      <text
         xml:space="preserve"
         style="font-style:normal;font-weight:normal;font-size:40px;line-height:1.25;font-family:sans-serif;letter-spacing:0px;word-spacing:0px;fill:#000000;fill-opacity:1;stroke:none"
         x="121.44528"
         y="220.43352"
         id="text3901"><tspan
           sodipodi:role="line"
           id="tspan3899"
           x="121.44528"
           y="256.92673" /></text>
    </g>
  </g>
</svg>
