<svg xmlns="http://www.w3.org/2000/svg" viewBox="0 0 234.51 169.68"><defs><style>.cls-1{fill:#8eb7e1;}.cls-2{fill:#cfe3f5;}.cls-3{fill:#a2c6e9;}</style></defs><title>current-logo-notext</title><g id="Layer_2" data-name="Layer 2"><g id="Layer_1-2" data-name="Layer 1"><g id="g236"><g id="g238"><g id="g244"><g id="g246"><path id="path256" class="cls-1" d="M23.23,160.53c2.67-7.33,8.4-16.53,18.13-28.13h0a97.15,97.15,0,0,1-9.6-20.27h0C23.1,122-7.17,158,23.23,160.53"/></g></g></g></g><g id="g258"><g id="g260"><g id="g266"><g id="g268"><path id="path278" class="cls-1" d="M73.37,12.4C41,37.33,42.83,59.47,91.1,82h0C28.17,50.53,78.43,16.67,133.37,2.53h0A76.56,76.56,0,0,0,115.23.4h0a79.27,79.27,0,0,0-41.87,12"/></g></g></g></g><g id="g280"><g id="g282"><g id="g288"><g id="g290"><path id="path300" class="cls-2" d="M38,46.67A88.11,88.11,0,0,0,71,158.4h0c26.93-11.33,50.13-29.73,45.73-47.87h0c14.67,5.07,42.8,17.47,29.73,31.2h0c24.4-18.67-32.93-44.53-55.6-55.07h0C37.1,61.6,35.1,36.93,71.1,9.33h0A87.67,87.67,0,0,0,38,46.67"/></g></g></g></g><g id="g372"><g id="g374"><g id="g380"><g id="g382"><path id="path392" class="cls-3" d="M116.7,110.53C107,158.13-52.77,202.67,31.23,108h0c-107.47,106.53,97.87,53.2,85.47,2.53"/></g></g></g></g><g id="g394"><g id="g396"><g id="g402"><g id="g404"><path id="path414" class="cls-1" d="M205.63,11.2c-1.87,5.87-6,13.33-12.8,22.4h0a96.33,96.33,0,0,1,10.8,22h0c10.53-12.67,35.47-44.4,3.6-44.4h-1.6"/></g></g></g></g><g id="g416"><g id="g418"><g id="g424"><g id="g426"><path id="path436" class="cls-1" d="M102,165.2a79.22,79.22,0,0,0,60-9.87h0c32.4-24.93,30.53-47.2-17.73-69.6h0C207.23,116.67,157,151.07,102,165.2"/></g></g></g></g><g id="g438"><g id="g440"><g id="g446"><g id="g448"><path id="path458" class="cls-2" d="M98.7,85.73c-5.47-11.07,2.13-24.53,19.47-34.53h0c-.8,10.27,6.53,20.67,26.27,29.87h0c53.6,25.07,55.73,49.73,19.73,77.33h0a87.45,87.45,0,0,0,33.2-37.47h0A88,88,0,0,0,166.83,10.8h0C124.57,27.47,81.1,59.6,98.7,85.73"/></g></g></g></g><g id="g530"><g id="g532"><g id="g538"><g id="g540"><path id="path550" class="cls-3" d="M98.7,85.73C69.63,37.6,295.1-47.2,204.17,59.73h0C246.83,16.13,239.1,0,214,0h0C170.3,0,73.9,48.8,98.7,85.73"/></g></g></g></g></g></g></svg>