<svg xmlns="http://www.w3.org/2000/svg" viewBox="0 0 235.51 278.94"><defs><style>.cls-1{font-size:62.58px;}.cls-1,.cls-3,.cls-4{fill:#fff;stroke:#fff;stroke-miterlimit:10;}.cls-1,.cls-3{font-family:Titillium-Bold, Titillium;font-weight:700;}.cls-2{letter-spacing:-0.01em;}.cls-3{font-size:32.78px;}</style></defs><title>current-logo-white</title><g id="Layer_2" data-name="Layer 2"><g id="Layer_1-2" data-name="Layer 1"><text class="cls-1" transform="translate(39.46 235.46)">SIE<tspan class="cls-2" x="86.62" y="0">L</tspan><tspan x="115.78" y="0">O</tspan></text><text class="cls-3" transform="translate(43.53 268.24)">BROWSER</text><g id="g236"><g id="g238"><g id="g244"><g id="g246"><path id="path256" class="cls-4" d="M23.73,161c2.67-7.33,8.4-16.53,18.13-28.13h0a97.15,97.15,0,0,1-9.6-20.27h0C23.6,122.5-6.67,158.5,23.73,161"/></g></g></g></g><g id="g258"><g id="g260"><g id="g266"><g id="g268"><path id="path278" class="cls-4" d="M73.87,12.9C41.47,37.83,43.33,60,91.6,82.5h0C28.67,51,78.93,17.17,133.87,3h0A76.56,76.56,0,0,0,115.73.9h0a79.27,79.27,0,0,0-41.87,12"/></g></g></g></g><g id="g280"><g id="g282"><g id="g288"><g id="g290"><path id="path300" class="cls-4" d="M38.53,47.17A88.11,88.11,0,0,0,71.47,158.9h0C98.4,147.57,121.6,129.17,117.2,111h0c14.67,5.07,42.8,17.47,29.73,31.2h0c24.4-18.67-32.93-44.53-55.6-55.07h0C37.6,62.1,35.6,37.43,71.6,9.83h0A87.67,87.67,0,0,0,38.53,47.17"/></g></g></g></g><g id="g372"><g id="g374"><g id="g380"><g id="g382"><path id="path392" class="cls-4" d="M117.2,111c-9.73,47.6-169.47,92.13-85.47-2.53h0C-75.73,215,129.6,161.7,117.2,111"/></g></g></g></g><g id="g394"><g id="g396"><g id="g402"><g id="g404"><path id="path414" class="cls-4" d="M206.13,11.7c-1.87,5.87-6,13.33-12.8,22.4h0a96.33,96.33,0,0,1,10.8,22h0c10.53-12.67,35.47-44.4,3.6-44.4h-1.6"/></g></g></g></g><g id="g416"><g id="g418"><g id="g424"><g id="g426"><path id="path436" class="cls-4" d="M102.53,165.7a79.22,79.22,0,0,0,60-9.87h0c32.4-24.93,30.53-47.2-17.73-69.6h0c62.93,30.93,12.67,65.33-42.27,79.47"/></g></g></g></g><g id="g438"><g id="g440"><g id="g446"><g id="g448"><path id="path458" class="cls-4" d="M99.2,86.23c-5.47-11.07,2.13-24.53,19.47-34.53h0c-.8,10.27,6.53,20.67,26.27,29.87h0c53.6,25.07,55.73,49.73,19.73,77.33h0a87.45,87.45,0,0,0,33.2-37.47h0A88,88,0,0,0,167.33,11.3h0C125.07,28,81.6,60.1,99.2,86.23"/></g></g></g></g><g id="g530"><g id="g532"><g id="g538"><g id="g540"><path id="path550" class="cls-4" d="M99.2,86.23C70.13,38.1,295.6-46.7,204.67,60.23h0C247.33,16.63,239.6.5,214.53.5h0C170.8.5,74.4,49.3,99.2,86.23"/></g></g></g></g></g></g></svg>