<?xml version="1.0" encoding="utf-8"?>
<!-- Generator: Adobe Illustrator 20.1.0, SVG Export Plug-In . SVG Version: 6.00 Build 0)  -->
<svg version="1.1" id="Layer_1" xmlns="http://www.w3.org/2000/svg" xmlns:xlink="http://www.w3.org/1999/xlink" x="0px" y="0px"
	 viewBox="0 0 256 256" style="enable-background:new 0 0 256 256;" xml:space="preserve">
<style type="text/css">
	.st0{fill:#8EB7E1;}
	.st1{fill:#CFE3F5;}
	.st2{fill:#A2C6E9;}
</style>
<title>current-logo-notext</title>
<g id="Layer_2">
	<g id="Layer_1-2">
		<g id="g236">
			<g id="g238">
				<g id="g244">
					<g id="g246">
						<path id="path256" class="st0" d="M29,205.6c2.8-7.7,8.8-17.3,19-29.4l0,0c-4.2-6.7-7.5-13.8-10-21.2l0,0
							C28.9,165.3-2.8,202.9,29,205.6"/>
					</g>
				</g>
			</g>
		</g>
		<g id="g258">
			<g id="g260">
				<g id="g266">
					<g id="g268">
						<path id="path278" class="st0" d="M81.4,50.6C47.6,76.7,49.5,99.9,100,123.4l0,0c-65.8-32.9-13.3-68.3,44.2-83.1l0,0
							c-6.2-1.5-12.6-2.2-19-2.2l0,0C109.7,38.1,94.6,42.5,81.4,50.6"/>
					</g>
				</g>
			</g>
		</g>
		<g id="g280">
			<g id="g282">
				<g id="g288">
					<g id="g290">
						<path id="path300" class="st1" d="M44.5,86.5c-19.6,42.1-4.8,92.1,34.5,116.9l0,0c28.2-11.8,52.4-31.1,47.8-50.1l0,0
							c15.3,5.3,44.8,18.3,31.1,32.6l0,0c25.5-19.5-34.4-46.6-58.1-57.6l0,0c-56.2-26.2-58.3-52-20.7-80.9l0,0
							C64,56.8,52,70.4,44.5,86.5"/>
					</g>
				</g>
			</g>
		</g>
		<g id="g372">
			<g id="g374">
				<g id="g380">
					<g id="g382">
						<path id="path392" class="st2" d="M126.8,153.3c-10.1,49.8-177.2,96.4-89.4-2.6l0,0C-75,262,139.7,206.3,126.8,153.3"/>
					</g>
				</g>
			</g>
		</g>
		<g id="g394">
			<g id="g396">
				<g id="g402">
					<g id="g404">
						<path id="path414" class="st0" d="M219.8,49.4c-2,6.1-6.3,13.9-13.4,23.4l0,0c4.7,7.2,8.5,14.9,11.3,23l0,0
							c11-13.3,37.1-46.4,3.8-46.4H219.8"/>
					</g>
				</g>
			</g>
		</g>
		<g id="g416">
			<g id="g418">
				<g id="g424">
					<g id="g426">
						<path id="path436" class="st0" d="M111.4,210.4c21.5,5,44,1.3,62.7-10.3l0,0c33.9-26.1,31.9-49.4-18.5-72.8l0,0
							C221.4,159.7,168.9,195.7,111.4,210.4"/>
					</g>
				</g>
			</g>
		</g>
		<g id="g438">
			<g id="g440">
				<g id="g446">
					<g id="g448">
						<path id="path458" class="st1" d="M107.9,127.3c-5.7-11.6,2.2-25.7,20.4-36.1l0,0c-0.8,10.7,6.8,21.6,27.5,31.2l0,0
							c56.1,26.2,58.3,52,20.6,80.9l0,0c15.1-9.4,27.2-23,34.7-39.2l0,0c19.1-41,5.6-89.9-31.9-115.2l0,0
							C135,66.4,89.5,100,107.9,127.3"/>
					</g>
				</g>
			</g>
		</g>
		<g id="g530">
			<g id="g532">
				<g id="g538">
					<g id="g540">
						<path id="path550" class="st2" d="M107.9,127.3C77.5,77,313.3-11.7,218.2,100.1l0,0c44.6-45.6,36.5-62.5,10.3-62.5l0,0
							C182.8,37.7,82,88.7,107.9,127.3"/>
					</g>
				</g>
			</g>
		</g>
	</g>
</g>
</svg>
